# Blender v3.2.0 OBJ File: ''
# www.blender.org
mtllib plane_grid.mtl
o Plane
v -1.000000 -0.011637 1.000000
v 1.000000 -0.011637 1.000000
v -1.000000 -0.011637 -1.000000
v 1.000000 -0.011637 -1.000000
v -1.000000 -0.011637 -0.750000
v -1.000000 -0.011637 -0.500000
v -1.000000 -0.011637 -0.250000
v -1.000000 -0.011637 0.000000
v -1.000000 -0.011637 0.250000
v -1.000000 -0.011637 0.500000
v -1.000000 -0.011637 0.750000
v -0.750000 -0.011637 1.000000
v -0.500000 -0.011637 1.000000
v -0.250000 -0.011637 1.000000
v 0.000000 -0.011637 1.000000
v 0.250000 -0.011637 1.000000
v 0.500000 -0.011637 1.000000
v 0.750000 -0.011637 1.000000
v 1.000000 -0.011637 0.750000
v 1.000000 -0.011637 0.500000
v 1.000000 -0.011637 0.250000
v 1.000000 -0.011637 0.000000
v 1.000000 -0.011637 -0.250000
v 1.000000 -0.011637 -0.500000
v 1.000000 -0.011637 -0.750000
v 0.750000 -0.011637 -1.000000
v 0.500000 -0.011637 -1.000000
v 0.250000 -0.011637 -1.000000
v 0.000000 -0.011637 -1.000000
v -0.250000 -0.011637 -1.000000
v -0.500000 -0.011637 -1.000000
v -0.750000 -0.011637 -1.000000
v -0.750000 -0.011637 0.750000
v -0.750000 -0.011637 0.500000
v -0.750000 -0.011637 0.250000
v -0.750000 -0.011637 0.000000
v -0.750000 -0.011637 -0.250000
v -0.750000 -0.011637 -0.500000
v -0.750000 -0.011637 -0.750000
v -0.500000 -0.011637 0.750000
v -0.500000 -0.011637 0.500000
v -0.500000 -0.011637 0.250000
v -0.500000 -0.011637 0.000000
v -0.500000 -0.011637 -0.250000
v -0.500000 -0.011637 -0.500000
v -0.500000 -0.011637 -0.750000
v -0.250000 -0.011637 0.750000
v -0.250000 -0.011637 0.500000
v -0.250000 -0.011637 0.250000
v -0.250000 -0.011637 0.000000
v -0.250000 -0.011637 -0.250000
v -0.250000 -0.011637 -0.500000
v -0.250000 -0.011637 -0.750000
v 0.000000 -0.011637 0.750000
v 0.000000 -0.011637 0.500000
v 0.000000 -0.011637 0.250000
v 0.000000 -0.011637 0.000000
v 0.000000 -0.011637 -0.250000
v 0.000000 -0.011637 -0.500000
v 0.000000 -0.011637 -0.750000
v 0.250000 -0.011637 0.750000
v 0.250000 -0.011637 0.500000
v 0.250000 -0.011637 0.250000
v 0.250000 -0.011637 0.000000
v 0.250000 -0.011637 -0.250000
v 0.250000 -0.011637 -0.500000
v 0.250000 -0.011637 -0.750000
v 0.500000 -0.011637 0.750000
v 0.500000 -0.011637 0.500000
v 0.500000 -0.011637 0.250000
v 0.500000 -0.011637 0.000000
v 0.500000 -0.011637 -0.250000
v 0.500000 -0.011637 -0.500000
v 0.500000 -0.011637 -0.750000
v 0.750000 -0.011637 0.750000
v 0.750000 -0.011637 0.500000
v 0.750000 -0.011637 0.250000
v 0.750000 -0.011637 0.000000
v 0.750000 -0.011637 -0.250000
v 0.750000 -0.011637 -0.500000
v 0.750000 -0.011637 -0.750000
v -1.000000 -0.721591 1.000000
v 1.000000 -0.721591 1.000000
v -1.000000 -0.721591 -1.000000
v 1.000000 -0.721591 -1.000000
v -1.000000 -0.256049 1.000000
v 1.000000 -0.256049 1.000000
v -1.000000 -0.256049 -1.000000
v 1.000000 -0.256049 -1.000000
v -1.000000 -0.256049 0.333333
v -1.000000 -0.256049 -0.333333
v 0.333333 -0.256049 1.000000
v -0.333333 -0.256049 1.000000
v 1.000000 -0.256049 -0.333333
v 1.000000 -0.256049 0.333333
v -0.333333 -0.256049 -1.000000
v 0.333333 -0.256049 -1.000000
v -0.333333 -0.256049 0.333333
v -0.333333 -0.256049 -0.333333
v 0.333333 -0.256049 0.333333
v 0.333333 -0.256049 -0.333333
v 0.000000 0.128333 0.000000
v 0.000000 0.128333 -1.000000
v -0.707107 0.128333 -0.707107
v -1.000000 0.128333 0.000000
v -0.707107 0.128333 0.707107
v 0.000000 0.128333 1.000000
v 0.707107 0.128333 0.707107
v 1.000000 0.128333 -0.000000
v 0.707107 0.128333 -0.707107
v 0.000000 0.355866 0.000000
v 0.000000 0.355866 -1.000000
v -0.382683 0.355866 -0.923880
v -0.707107 0.355866 -0.707107
v -0.923880 0.355866 -0.382683
v -1.000000 0.355866 0.000000
v -0.923880 0.355866 0.382683
v -0.707107 0.355866 0.707107
v -0.382683 0.355866 0.923880
v 0.000000 0.355866 1.000000
v 0.382683 0.355866 0.923880
v 0.707107 0.355866 0.707107
v 0.923880 0.355866 0.382684
v 1.000000 0.355866 -0.000000
v 0.923879 0.355866 -0.382684
v 0.707107 0.355866 -0.707107
v 0.382683 0.355866 -0.923880
vt 0.250000 1.000000
vt 0.125000 1.000000
vt 0.125000 0.875000
vt 0.250000 0.875000
vt 0.375000 1.000000
vt 0.375000 0.875000
vt 0.500000 1.000000
vt 0.500000 0.875000
vt 0.625000 1.000000
vt 0.625000 0.875000
vt 0.750000 1.000000
vt 0.750000 0.875000
vt 0.875000 1.000000
vt 0.875000 0.875000
vt 0.125000 0.125000
vt 0.000000 0.125000
vt 0.000000 0.000000
vt 0.125000 0.000000
vt 0.125000 0.250000
vt 0.000000 0.250000
vt 0.125000 0.375000
vt 0.000000 0.375000
vt 0.125000 0.500000
vt 0.000000 0.500000
vt 0.125000 0.625000
vt 0.000000 0.625000
vt 0.125000 0.750000
vt 0.000000 0.750000
vt 0.000000 0.875000
vt 0.250000 0.125000
vt 0.250000 0.000000
vt 0.250000 0.250000
vt 0.250000 0.375000
vt 0.250000 0.500000
vt 0.250000 0.625000
vt 0.250000 0.750000
vt 0.375000 0.125000
vt 0.375000 0.000000
vt 0.375000 0.250000
vt 0.375000 0.375000
vt 0.375000 0.500000
vt 0.375000 0.625000
vt 0.375000 0.750000
vt 0.500000 0.125000
vt 0.500000 0.000000
vt 0.500000 0.250000
vt 0.500000 0.375000
vt 0.500000 0.500000
vt 0.500000 0.625000
vt 0.500000 0.750000
vt 0.625000 0.125000
vt 0.625000 0.000000
vt 0.625000 0.250000
vt 0.625000 0.375000
vt 0.625000 0.500000
vt 0.625000 0.625000
vt 0.625000 0.750000
vt 0.750000 0.125000
vt 0.750000 0.000000
vt 0.750000 0.250000
vt 0.750000 0.375000
vt 0.750000 0.500000
vt 0.750000 0.625000
vt 0.750000 0.750000
vt 0.875000 0.125000
vt 0.875000 0.000000
vt 0.875000 0.250000
vt 0.875000 0.375000
vt 0.875000 0.500000
vt 0.875000 0.625000
vt 0.875000 0.750000
vt 1.000000 0.125000
vt 1.000000 0.000000
vt 1.000000 0.250000
vt 1.000000 0.375000
vt 1.000000 0.500000
vt 1.000000 0.625000
vt 1.000000 0.750000
vt 1.000000 0.875000
vt 1.000000 1.000000
vt 0.000000 1.000000
vt 0.000000 0.000000
vt 1.000000 0.000000
vt 1.000000 1.000000
vt 0.666667 1.000000
vt 0.666667 0.666667
vt 1.000000 0.666667
vt 0.333333 1.000000
vt 0.000000 1.000000
vt 0.000000 0.666667
vt 0.333333 0.666667
vt 0.333333 0.333333
vt 0.000000 0.333333
vt 0.000000 0.000000
vt 0.333333 0.000000
vt 0.666667 0.333333
vt 0.666667 0.000000
vt 1.000000 0.333333
vt 1.000000 0.000000
vt 1.000000 1.000000
vt 0.500000 0.500000
vt 0.500000 1.000000
vt 0.146447 0.853553
vt 0.000000 0.500000
vt 0.146447 0.146447
vt 0.500000 0.000000
vt 0.853553 0.146447
vt 1.000000 0.500000
vt 0.853553 0.853553
vt 0.000000 1.000000
vt 0.500000 0.500000
vt 0.500000 1.000000
vt 0.308658 0.961940
vt 0.146447 0.853553
vt 0.038060 0.691342
vt 0.000000 0.500000
vt 0.038060 0.308658
vt 0.146447 0.146447
vt 0.308658 0.038060
vt 0.500000 0.000000
vt 0.691342 0.038060
vt 0.853553 0.146447
vt 0.961940 0.308658
vt 1.000000 0.500000
vt 0.961940 0.691342
vt 0.853553 0.853553
vt 0.691342 0.961940
vn 0.0000 1.0000 0.0000
usemtl None
s off
f 31/1/1 32/2/1 39/3/1 46/4/1
f 30/5/1 31/1/1 46/4/1 53/6/1
f 29/7/1 30/5/1 53/6/1 60/8/1
f 28/9/1 29/7/1 60/8/1 67/10/1
f 27/11/1 28/9/1 67/10/1 74/12/1
f 26/13/1 27/11/1 74/12/1 81/14/1
f 33/15/1 11/16/1 1/17/1 12/18/1
f 34/19/1 10/20/1 11/16/1 33/15/1
f 35/21/1 9/22/1 10/20/1 34/19/1
f 36/23/1 8/24/1 9/22/1 35/21/1
f 37/25/1 7/26/1 8/24/1 36/23/1
f 38/27/1 6/28/1 7/26/1 37/25/1
f 39/3/1 5/29/1 6/28/1 38/27/1
f 40/30/1 33/15/1 12/18/1 13/31/1
f 41/32/1 34/19/1 33/15/1 40/30/1
f 42/33/1 35/21/1 34/19/1 41/32/1
f 43/34/1 36/23/1 35/21/1 42/33/1
f 44/35/1 37/25/1 36/23/1 43/34/1
f 45/36/1 38/27/1 37/25/1 44/35/1
f 46/4/1 39/3/1 38/27/1 45/36/1
f 47/37/1 40/30/1 13/31/1 14/38/1
f 48/39/1 41/32/1 40/30/1 47/37/1
f 49/40/1 42/33/1 41/32/1 48/39/1
f 50/41/1 43/34/1 42/33/1 49/40/1
f 51/42/1 44/35/1 43/34/1 50/41/1
f 52/43/1 45/36/1 44/35/1 51/42/1
f 53/6/1 46/4/1 45/36/1 52/43/1
f 54/44/1 47/37/1 14/38/1 15/45/1
f 55/46/1 48/39/1 47/37/1 54/44/1
f 56/47/1 49/40/1 48/39/1 55/46/1
f 57/48/1 50/41/1 49/40/1 56/47/1
f 58/49/1 51/42/1 50/41/1 57/48/1
f 59/50/1 52/43/1 51/42/1 58/49/1
f 60/8/1 53/6/1 52/43/1 59/50/1
f 61/51/1 54/44/1 15/45/1 16/52/1
f 62/53/1 55/46/1 54/44/1 61/51/1
f 63/54/1 56/47/1 55/46/1 62/53/1
f 64/55/1 57/48/1 56/47/1 63/54/1
f 65/56/1 58/49/1 57/48/1 64/55/1
f 66/57/1 59/50/1 58/49/1 65/56/1
f 67/10/1 60/8/1 59/50/1 66/57/1
f 68/58/1 61/51/1 16/52/1 17/59/1
f 69/60/1 62/53/1 61/51/1 68/58/1
f 70/61/1 63/54/1 62/53/1 69/60/1
f 71/62/1 64/55/1 63/54/1 70/61/1
f 72/63/1 65/56/1 64/55/1 71/62/1
f 73/64/1 66/57/1 65/56/1 72/63/1
f 74/12/1 67/10/1 66/57/1 73/64/1
f 75/65/1 68/58/1 17/59/1 18/66/1
f 76/67/1 69/60/1 68/58/1 75/65/1
f 77/68/1 70/61/1 69/60/1 76/67/1
f 78/69/1 71/62/1 70/61/1 77/68/1
f 79/70/1 72/63/1 71/62/1 78/69/1
f 80/71/1 73/64/1 72/63/1 79/70/1
f 81/14/1 74/12/1 73/64/1 80/71/1
f 19/72/1 75/65/1 18/66/1 2/73/1
f 20/74/1 76/67/1 75/65/1 19/72/1
f 21/75/1 77/68/1 76/67/1 20/74/1
f 22/76/1 78/69/1 77/68/1 21/75/1
f 23/77/1 79/70/1 78/69/1 22/76/1
f 24/78/1 80/71/1 79/70/1 23/77/1
f 25/79/1 81/14/1 80/71/1 24/78/1
f 85/80/1 84/81/1 82/82/1 83/83/1
f 89/84/1 97/85/1 101/86/1 94/87/1
f 96/88/1 88/89/1 91/90/1 99/91/1
f 97/85/1 96/88/1 99/91/1 101/86/1
f 98/92/1 90/93/1 86/94/1 93/95/1
f 99/91/1 91/90/1 90/93/1 98/92/1
f 100/96/1 98/92/1 93/95/1 92/97/1
f 101/86/1 99/91/1 98/92/1 100/96/1
f 95/98/1 100/96/1 92/97/1 87/99/1
f 94/87/1 101/86/1 100/96/1 95/98/1
f 4/100/1 26/13/1 81/14/1 25/79/1
f 102/101/1 103/102/1 104/103/1
f 102/101/1 104/103/1 105/104/1
f 102/101/1 105/104/1 106/105/1
f 102/101/1 106/105/1 107/106/1
f 102/101/1 107/106/1 108/107/1
f 102/101/1 108/107/1 109/108/1
f 102/101/1 109/108/1 110/109/1
f 102/101/1 110/109/1 103/102/1
f 32/2/1 3/110/1 5/29/1 39/3/1
f 111/111/1 112/112/1 113/113/1
f 111/111/1 113/113/1 114/114/1
f 111/111/1 114/114/1 115/115/1
f 111/111/1 115/115/1 116/116/1
f 111/111/1 116/116/1 117/117/1
f 111/111/1 117/117/1 118/118/1
f 111/111/1 118/118/1 119/119/1
f 111/111/1 119/119/1 120/120/1
f 111/111/1 120/120/1 121/121/1
f 111/111/1 121/121/1 122/122/1
f 111/111/1 122/122/1 123/123/1
f 111/111/1 123/123/1 124/124/1
f 111/111/1 124/124/1 125/125/1
f 111/111/1 125/125/1 126/126/1
f 111/111/1 126/126/1 127/127/1
f 111/111/1 127/127/1 112/112/1
