# Blender v3.2.0 OBJ File: ''
# www.blender.org
mtllib triangles.mtl
o Plane
v -0.592144 -0.397026 0.205131
v 0.069828 0.366354 0.031376
v 0.078113 -0.196340 -0.039618
v 0.182832 0.460373 0.355344
v -0.059464 0.188951 -0.483118
v -0.375084 0.081532 0.215283
v -0.533016 -0.155747 0.244746
v -0.496234 -0.162183 -0.246035
v 0.014212 -0.155747 -0.302483
v -0.859572 0.171154 -0.111486
v -0.605693 0.410016 -0.428309
v -0.150197 0.288593 -0.289097
vt 0.000000 0.021475
vt 1.000000 0.000000
vt 0.978525 1.000000
vt 0.978525 1.000000
vt 0.000000 1.000000
vt 0.000000 0.021475
vt 0.978525 1.000000
vt 0.000000 1.000000
vt 0.000000 0.021475
vt 0.978525 1.000000
vt 0.000000 1.000000
vt 0.000000 0.021475
vn -0.5731 0.8083 -0.1347
vn -0.0142 0.9998 -0.0142
vn -0.4259 0.5152 -0.7438
vn 0.0229 0.7894 0.6135
usemtl None
s off
f 6/1/1 2/2/1 5/3/1
f 9/4/2 8/5/2 7/6/2
f 4/7/3 3/8/3 1/9/3
f 12/10/4 11/11/4 10/12/4
